<svg xmlns="http://www.w3.org/2000/svg" width="75.048" height="14.964" viewBox="0 0 75.048 14.964">
  <path id="Path_1627" data-name="Path 1627" d="M301.461,407.2H243.846v14.964h57.616V407.2Zm-54.78,12.768v.323h-2.836v-.323Zm0-2.18v.324h-2.836v-.324Zm0-2.18v.324h-2.836v-.324Zm0-2.18v.324h-2.836v-.324Zm0-2.18v.324h-2.836v-.324Zm0-2.18v.324h-2.836v-.324Zm54.78,10.9v.323h-2.836v-.323Zm0-2.18v.324h-2.836v-.324Zm0-2.18v.324h-2.836v-.324Zm0-2.18v.324h-2.836v-.324Zm0-2.18v.324h-2.836v-.324Zm0-2.18v.324h-2.836v-.324Zm-75.048-1.87h15.9V422.16h-15.9V407.2Zm1.87,12.768v.323H240.44v-.323Zm0-2.18v.324H240.44v-.324Zm0-2.18v.324H240.44v-.324Zm0-2.18v.324H240.44v-.324Zm0-2.18v.324H240.44v-.324Zm0-2.18v.324H240.44v-.324Zm3.061,1.963h.4l.108-.543h.572l.063-.293h-.574l.063-.311h.619l.045-.277h-1.006l-.293,1.423Zm1.192,0h.418l.293-1.423h-.4l-.309,1.423Zm.635,0h1.1l.063-.295h-.7l.063-.277h.635l.061-.3h-.635l.063-.279h.68l.063-.277h-1.1l-.295,1.423Zm1.5-.944v0a.3.3,0,0,0,.05.193.3.3,0,0,0,.109.084l.045.017.042.015h0l0,0h.005a.771.771,0,0,0,.088.028l.11.029a1.183,1.183,0,0,1,.165.059c.05.022.075.05.075.083v.017a.116.116,0,0,1-.043.094.309.309,0,0,1-.1.053.412.412,0,0,1-.059.015.329.329,0,0,1-.049,0,.164.164,0,0,1-.131-.048.184.184,0,0,1-.042-.125v-.021a.149.149,0,0,1,0-.025l-.4,0c0,.01,0,.021,0,.032l0,.031c0,.01,0,.021,0,.032s0,.021,0,.032a.376.376,0,0,0,.1.255.567.567,0,0,0,.421.112.812.812,0,0,0,.557-.166.492.492,0,0,0,.186-.374.377.377,0,0,0-.005-.058.268.268,0,0,0-.017-.06.3.3,0,0,0-.089-.12.449.449,0,0,0-.2-.086,1.719,1.719,0,0,1-.274-.082c-.076-.031-.113-.066-.113-.105a.118.118,0,0,1,.056-.1.249.249,0,0,1,.121-.044h.025a.207.207,0,0,1,.112.03.1.1,0,0,1,.047.1c0,.007,0,.014,0,.022a.1.1,0,0,1,0,.024h.4a.575.575,0,0,0,.017-.074.514.514,0,0,0,0-.067.253.253,0,0,0-.128-.239.7.7,0,0,0-.277-.08l-.048,0h-.048a.931.931,0,0,0-.485.122.465.465,0,0,0-.227.387Zm1.329.433v0c0,.017,0,.034,0,.052l0,.052a.547.547,0,0,0,.128.3.559.559,0,0,0,.443.136h.033a.865.865,0,0,0,.4-.08.771.771,0,0,0,.237-.179.523.523,0,0,0,.082-.132.279.279,0,0,0,.026-.1v-.011l0-.011-.417,0a.2.2,0,0,1-.058.119.325.325,0,0,1-.106.078.316.316,0,0,1-.044.015.177.177,0,0,1-.04,0l-.024,0h-.022a.174.174,0,0,1-.166-.079.385.385,0,0,1-.044-.191c0-.022,0-.045,0-.069s0-.048.009-.073,0-.024,0-.035,0-.024.007-.035a.828.828,0,0,1,.13-.32.363.363,0,0,1,.171-.134l.035-.007a.2.2,0,0,1,.036,0l.042,0a.448.448,0,0,1,.05.008.223.223,0,0,1,.087.045.127.127,0,0,1,.041.1c0,.006,0,.012,0,.018l0,.021.432,0a.387.387,0,0,0,.011-.057c0-.018,0-.036,0-.053a.261.261,0,0,0-.126-.244.753.753,0,0,0-.275-.1c-.035-.005-.07-.008-.1-.011l-.1,0a.817.817,0,0,0-.573.191.973.973,0,0,0-.256.4,1.151,1.151,0,0,0-.041.192,1.4,1.4,0,0,0-.012.172Zm-4.759,2.178v0c0,.017,0,.034,0,.052s0,.035,0,.052a.546.546,0,0,0,.128.3.56.56,0,0,0,.443.136h.033a.857.857,0,0,0,.4-.081.777.777,0,0,0,.237-.179.516.516,0,0,0,.082-.132.281.281,0,0,0,.026-.1v-.011l0-.011-.417,0a.206.206,0,0,1-.057.119.33.33,0,0,1-.106.078.263.263,0,0,1-.044.015.181.181,0,0,1-.041,0l-.023,0h-.022a.174.174,0,0,1-.166-.079.382.382,0,0,1-.044-.19c0-.023,0-.045,0-.069s.005-.048.009-.073,0-.023.005-.035,0-.023.007-.035a.822.822,0,0,1,.13-.319.36.36,0,0,1,.171-.135l.035-.007a.2.2,0,0,1,.035,0l.042,0a.4.4,0,0,1,.05.008.223.223,0,0,1,.088.045.127.127,0,0,1,.041.1c0,.005,0,.012,0,.019l0,.021.433,0a.4.4,0,0,0,.011-.057c0-.018,0-.036,0-.053a.261.261,0,0,0-.126-.244.745.745,0,0,0-.275-.1c-.035,0-.07-.009-.1-.01s-.066,0-.1,0a.816.816,0,0,0-.573.192.972.972,0,0,0-.256.4,1.144,1.144,0,0,0-.041.192,1.387,1.387,0,0,0-.012.172Zm1.456.511h.419l.293-1.423h-.4l-.309,1.423Zm.635,0h1.1l.063-.295h-.7l.063-.277h.635l.061-.295h-.635l.063-.279h.68l.063-.277h-1.1l-.295,1.423Zm1.5-.944v0a.293.293,0,0,0,.05.193.3.3,0,0,0,.109.084l.045.017.042.015h0l0,0h.005a.835.835,0,0,0,.089.028l.11.029a1.179,1.179,0,0,1,.165.06c.05.022.075.05.075.082v.017a.115.115,0,0,1-.043.094.307.307,0,0,1-.1.053.416.416,0,0,1-.058.015.335.335,0,0,1-.05,0,.163.163,0,0,1-.131-.048.184.184,0,0,1-.042-.125v-.021a.226.226,0,0,1,0-.025l-.4,0,0,.032c0,.011,0,.021,0,.031a.312.312,0,0,1,0,.032c0,.011,0,.021,0,.032a.374.374,0,0,0,.1.255.566.566,0,0,0,.42.112.814.814,0,0,0,.557-.166.494.494,0,0,0,.186-.374.378.378,0,0,0,0-.058.287.287,0,0,0-.017-.06.3.3,0,0,0-.09-.12.449.449,0,0,0-.2-.087,1.727,1.727,0,0,1-.274-.082c-.075-.031-.113-.066-.113-.105a.118.118,0,0,1,.056-.1.253.253,0,0,1,.121-.044h.025a.211.211,0,0,1,.112.031.1.1,0,0,1,.047.1c0,.006,0,.014,0,.022a.1.1,0,0,1,0,.024l.4,0a.53.53,0,0,0,.017-.074.507.507,0,0,0,0-.067.251.251,0,0,0-.128-.239.681.681,0,0,0-.277-.08l-.048,0h-.048a.934.934,0,0,0-.485.122.463.463,0,0,0-.227.387Zm1.329.433v0c0,.017,0,.034,0,.052s0,.035,0,.052a.546.546,0,0,0,.128.3.56.56,0,0,0,.442.136h.034a.855.855,0,0,0,.4-.081.77.77,0,0,0,.237-.179.534.534,0,0,0,.083-.132.289.289,0,0,0,.025-.1v-.011l0-.011-.417,0a.206.206,0,0,1-.057.119.337.337,0,0,1-.107.078.25.25,0,0,1-.044.015.176.176,0,0,1-.04,0l-.024,0H236.8a.174.174,0,0,1-.166-.079.382.382,0,0,1-.044-.19c0-.023,0-.045,0-.069s.005-.048.009-.073,0-.023,0-.035,0-.023.007-.035a.822.822,0,0,1,.13-.319.364.364,0,0,1,.171-.135l.035-.007a.2.2,0,0,1,.036,0l.042,0a.433.433,0,0,1,.05.008.226.226,0,0,1,.088.045.127.127,0,0,1,.04.1.133.133,0,0,1,0,.019.127.127,0,0,1,0,.021l.433,0a.394.394,0,0,0,.011-.057.472.472,0,0,0,0-.053.261.261,0,0,0-.126-.244.742.742,0,0,0-.275-.1c-.035,0-.07-.009-.1-.01s-.066,0-.1,0a.813.813,0,0,0-.573.192.967.967,0,0,0-.256.4,1.1,1.1,0,0,0-.042.192,1.4,1.4,0,0,0-.012.172Zm-4.006,1.746v0a.3.3,0,0,0,.05.192.3.3,0,0,0,.109.084.373.373,0,0,0,.045.017l.041.015h0l0,0h0c.024.009.053.018.089.027l.11.029a1.23,1.23,0,0,1,.165.059c.05.023.074.05.074.083v.018a.116.116,0,0,1-.043.094.3.3,0,0,1-.1.053.4.4,0,0,1-.059.015.311.311,0,0,1-.049,0,.164.164,0,0,1-.132-.048.185.185,0,0,1-.041-.124v-.021a.14.14,0,0,1,0-.024l-.4,0,0,.032,0,.032c0,.011,0,.021,0,.031a.312.312,0,0,0,0,.032.376.376,0,0,0,.1.255.566.566,0,0,0,.421.112.814.814,0,0,0,.557-.166.494.494,0,0,0,.186-.375.378.378,0,0,0,0-.058.284.284,0,0,0-.017-.06.3.3,0,0,0-.089-.12.455.455,0,0,0-.2-.086,1.678,1.678,0,0,1-.274-.082c-.075-.031-.113-.066-.113-.1a.118.118,0,0,1,.056-.1.259.259,0,0,1,.121-.044h.026a.211.211,0,0,1,.112.031.1.1,0,0,1,.047.1c0,.007,0,.014,0,.022a.185.185,0,0,1,0,.024l.4,0a.492.492,0,0,0,.017-.075.5.5,0,0,0,0-.067.25.25,0,0,0-.128-.238.687.687,0,0,0-.277-.08l-.048,0h-.049a.93.93,0,0,0-.484.122.465.465,0,0,0-.227.388Zm1.236.943h1.1l.063-.295h-.7l.063-.277h.635l.061-.295h-.635l.063-.28h.68l.063-.277h-1.1l-.295,1.423Zm1.5-.943v0a.3.3,0,0,0,.05.192.3.3,0,0,0,.109.084.408.408,0,0,0,.045.017l.041.015h0l0,0h.005a.92.92,0,0,0,.088.027l.11.029a1.178,1.178,0,0,1,.165.059c.05.023.075.05.075.083v.018a.117.117,0,0,1-.043.094.308.308,0,0,1-.1.053.4.4,0,0,1-.059.015.311.311,0,0,1-.049,0,.162.162,0,0,1-.131-.048.183.183,0,0,1-.042-.124v-.021a.146.146,0,0,1,0-.024l-.4,0,0,.032,0,.032c0,.011,0,.021,0,.031s0,.021,0,.032a.376.376,0,0,0,.1.255.566.566,0,0,0,.421.112.814.814,0,0,0,.557-.166.494.494,0,0,0,.186-.375.38.38,0,0,0,0-.058.287.287,0,0,0-.017-.06.3.3,0,0,0-.089-.12.449.449,0,0,0-.2-.086,1.657,1.657,0,0,1-.274-.082c-.076-.031-.113-.066-.113-.1a.119.119,0,0,1,.056-.1.259.259,0,0,1,.121-.044h.025a.208.208,0,0,1,.112.031.1.1,0,0,1,.047.1c0,.007,0,.014,0,.022a.094.094,0,0,1,0,.024l.4,0a.547.547,0,0,0,.017-.075.493.493,0,0,0,0-.067.252.252,0,0,0-.128-.238.693.693,0,0,0-.277-.08l-.048,0h-.049a.931.931,0,0,0-.484.122.465.465,0,0,0-.227.388Zm1.252.943h.419l.293-1.423h-.4l-.309,1.423Zm-4.92,1.235v0a.3.3,0,0,0,.05.193.315.315,0,0,0,.109.084l.045.017.041.015h0l0,0h0a.827.827,0,0,0,.089.027l.11.03a1.158,1.158,0,0,1,.165.059q.074.033.074.082v.018a.116.116,0,0,1-.043.094.3.3,0,0,1-.1.053.35.35,0,0,1-.059.015.321.321,0,0,1-.049.005.165.165,0,0,1-.132-.048.184.184,0,0,1-.041-.125v-.021a.147.147,0,0,1,0-.025l-.4,0,0,.031,0,.032c0,.01,0,.021,0,.032a.3.3,0,0,0,0,.031.377.377,0,0,0,.1.256.569.569,0,0,0,.421.112.814.814,0,0,0,.557-.166.494.494,0,0,0,.186-.375.387.387,0,0,0,0-.058.272.272,0,0,0-.017-.06.3.3,0,0,0-.089-.12.455.455,0,0,0-.2-.087,1.7,1.7,0,0,1-.274-.081c-.075-.031-.113-.066-.113-.105a.119.119,0,0,1,.056-.1.259.259,0,0,1,.121-.044h.025a.21.21,0,0,1,.112.031.105.105,0,0,1,.047.1c0,.007,0,.014,0,.022a.133.133,0,0,1,0,.023l.4,0a.481.481,0,0,0,.016-.075.428.428,0,0,0,0-.067.25.25,0,0,0-.128-.239.687.687,0,0,0-.277-.08l-.048,0h-.049a.924.924,0,0,0-.484.122.462.462,0,0,0-.227.387Zm1.236.944h1.1l.063-.3h-.7l.063-.277h.635l.061-.295h-.635l.063-.279h.68l.063-.277h-1.1l-.295,1.424Zm1.315,0h.372l.216-1.083.263,1.083h.558l.309-1.424h-.372l-.232,1.02-.247-1.02h-.572l-.3,1.424Zm1.549,0h.4l.154-.28h.558l.045.28h.45l-.263-1.424h-.5l-.851,1.424Zm1.083-.572-.061-.6-.311.6Zm.667.572h.419l.293-1.424h-.4l-.309,1.424Zm-4.272,2.177h.418l.293-1.423h-.4l-.309,1.423Zm.635,0h1.1l.063-.294h-.7l.063-.277h.635l.061-.295h-.635l.063-.279h.68l.063-.278h-1.1l-.295,1.423Zm1.315,0h1.054l.061-.309h-.65l.248-1.115h-.417l-.3,1.423Zm22.873-7.277h-2.956a.939.939,0,0,0-.185-.946,1.414,1.414,0,0,0-1.067-.34,1.518,1.518,0,0,0-1.478.975c-.165.783.727,1.034,1.466,1.241,1.692.458,4.254.636,3.643,3.517-.478,2.247-2.921,3.313-5.389,3.313s-4.517-.727-3.946-3.623h2.956c-.226,1,.394,1.551,1.458,1.551.683,0,1.628-.354,1.779-1.064.307-1.448-1.946-1.138-4.05-2.157a2.151,2.151,0,0,1-1.057-2.6c.655-2.527,3.019-3.222,5.251-3.222,2.2,0,4.3.783,3.574,3.355Zm8.55,7.537H258.05l2.269-10.671h8.129l-.441,2.069h-5.173l-.468,2.2h4.759l-.438,2.069h-4.759l-.48,2.261h5.172l-.44,2.069Zm1.67,0,2.269-10.671h4.138l1.887,7.951.035-.03,1.684-7.922h2.661L278.253,420h-4.094l-1.884-8.173h-.03L270.509,420Zm14.454,0h-2.956l6.481-10.671h3.606L291.377,420h-3.34l-.266-2.084h-4.33L282.3,420Zm2.33-4.153,2.392-4.434h.044l.417,4.434ZM295.456,420H292.5l2.268-10.671h2.956Z" transform="translate(-226.413 -407.198)" fill="#fff" fill-rule="evenodd"/>
</svg>
